<svg xmlns="http://www.w3.org/2000/svg" viewBox="0 0 480 330" font-family="Inter, system-ui, sans-serif"><line x1="30" y1="286" x2="450" y2="286" stroke="#9a9aa6" stroke-width="1.2" opacity=".6"/><line x1="30" y1="286" x2="30" y2="36" stroke="#9a9aa6" stroke-width="1.2" opacity=".6"/><text x="450" y="302" text-anchor="end" font-size="10" fill="#9a9aa6">position along the stick →</text><text x="24" y="46" text-anchor="end" font-size="10" fill="#9a9aa6" transform="rotate(-90 24 46)">time →</text><line x1="70" y1="286" x2="252" y2="40" stroke="#e8714e" stroke-width="2.4" stroke-linecap="round" opacity=".9"/><line x1="110" y1="286" x2="292" y2="40" stroke="#e8714e" stroke-width="2.4" stroke-linecap="round" opacity=".9"/><line x1="150" y1="286" x2="332" y2="40" stroke="#e8714e" stroke-width="2.4" stroke-linecap="round" opacity=".9"/><line x1="190" y1="286" x2="372" y2="40" stroke="#e8714e" stroke-width="2.4" stroke-linecap="round" opacity=".9"/><line x1="230" y1="286" x2="412" y2="40" stroke="#e8714e" stroke-width="2.4" stroke-linecap="round" opacity=".9"/><line x1="250" y1="286" x2="68" y2="40" stroke="#4f86c6" stroke-width="2.4" stroke-linecap="round" opacity=".9"/><line x1="290" y1="286" x2="108" y2="40" stroke="#4f86c6" stroke-width="2.4" stroke-linecap="round" opacity=".9"/><line x1="330" y1="286" x2="148" y2="40" stroke="#4f86c6" stroke-width="2.4" stroke-linecap="round" opacity=".9"/><line x1="370" y1="286" x2="188" y2="40" stroke="#4f86c6" stroke-width="2.4" stroke-linecap="round" opacity=".9"/><line x1="410" y1="286" x2="228" y2="40" stroke="#4f86c6" stroke-width="2.4" stroke-linecap="round" opacity=".9"/><circle cx="160.0" cy="164.4" r="3.4" fill="#caa24a" stroke="#2a2a32" stroke-width="0.8"/><circle cx="180.0" cy="137.3" r="3.4" fill="#caa24a" stroke="#2a2a32" stroke-width="0.8"/><circle cx="200.0" cy="110.3" r="3.4" fill="#caa24a" stroke="#2a2a32" stroke-width="0.8"/><circle cx="220.0" cy="83.3" r="3.4" fill="#caa24a" stroke="#2a2a32" stroke-width="0.8"/><circle cx="240.0" cy="56.2" r="3.4" fill="#caa24a" stroke="#2a2a32" stroke-width="0.8"/><circle cx="180.0" cy="191.4" r="3.4" fill="#caa24a" stroke="#2a2a32" stroke-width="0.8"/><circle cx="200.0" cy="164.4" r="3.4" fill="#caa24a" stroke="#2a2a32" stroke-width="0.8"/><circle cx="220.0" cy="137.3" r="3.4" fill="#caa24a" stroke="#2a2a32" stroke-width="0.8"/><circle cx="240.0" cy="110.3" r="3.4" fill="#caa24a" stroke="#2a2a32" stroke-width="0.8"/><circle cx="260.0" cy="83.3" r="3.4" fill="#caa24a" stroke="#2a2a32" stroke-width="0.8"/><circle cx="200.0" cy="218.4" r="3.4" fill="#caa24a" stroke="#2a2a32" stroke-width="0.8"/><circle cx="220.0" cy="191.4" r="3.4" fill="#caa24a" stroke="#2a2a32" stroke-width="0.8"/><circle cx="240.0" cy="164.4" r="3.4" fill="#caa24a" stroke="#2a2a32" stroke-width="0.8"/><circle cx="260.0" cy="137.3" r="3.4" fill="#caa24a" stroke="#2a2a32" stroke-width="0.8"/><circle cx="280.0" cy="110.3" r="3.4" fill="#caa24a" stroke="#2a2a32" stroke-width="0.8"/><circle cx="220.0" cy="245.5" r="3.4" fill="#caa24a" stroke="#2a2a32" stroke-width="0.8"/><circle cx="240.0" cy="218.4" r="3.4" fill="#caa24a" stroke="#2a2a32" stroke-width="0.8"/><circle cx="260.0" cy="191.4" r="3.4" fill="#caa24a" stroke="#2a2a32" stroke-width="0.8"/><circle cx="280.0" cy="164.4" r="3.4" fill="#caa24a" stroke="#2a2a32" stroke-width="0.8"/><circle cx="300.0" cy="137.3" r="3.4" fill="#caa24a" stroke="#2a2a32" stroke-width="0.8"/><circle cx="240.0" cy="272.5" r="3.4" fill="#caa24a" stroke="#2a2a32" stroke-width="0.8"/><circle cx="260.0" cy="245.5" r="3.4" fill="#caa24a" stroke="#2a2a32" stroke-width="0.8"/><circle cx="280.0" cy="218.4" r="3.4" fill="#caa24a" stroke="#2a2a32" stroke-width="0.8"/><circle cx="300.0" cy="191.4" r="3.4" fill="#caa24a" stroke="#2a2a32" stroke-width="0.8"/><circle cx="320.0" cy="164.4" r="3.4" fill="#caa24a" stroke="#2a2a32" stroke-width="0.8"/><text x="240.0" y="26" text-anchor="middle" font-size="13" fill="#caa24a" font-weight="700">25 crossings = 25 collisions</text></svg>