<svg xmlns="http://www.w3.org/2000/svg" viewBox="0 0 480 150" font-family="Inter, system-ui, sans-serif"><rect x="0" y="112" width="480" height="38" fill="#7fb6c4" opacity="0.18"/><rect x="18" y="96" width="444" height="16" rx="3" fill="#b79b74" stroke="#8f7651" stroke-width="1"/><line x1="37" y1="88" x2="35" y2="92" stroke="#3a3a42" stroke-width="0.8"/><line x1="37" y1="88" x2="35" y2="84" stroke="#3a3a42" stroke-width="0.8"/><line x1="40" y1="88" x2="38" y2="92" stroke="#3a3a42" stroke-width="0.8"/><line x1="40" y1="88" x2="38" y2="84" stroke="#3a3a42" stroke-width="0.8"/><line x1="43" y1="88" x2="41" y2="92" stroke="#3a3a42" stroke-width="0.8"/><line x1="43" y1="88" x2="41" y2="84" stroke="#3a3a42" stroke-width="0.8"/><circle cx="45" cy="88" r="3.2" fill="#e8714e"/><circle cx="40" cy="88" r="3.6" fill="#e8714e"/><circle cx="35" cy="88" r="3" fill="#e8714e"/><line x1="31" y1="76" x2="49" y2="76" stroke="#e8714e" stroke-width="1.6"/><path d="M49,76 L45,73.5 L45,78.5 Z" fill="#e8714e"/><line x1="81" y1="88" x2="79" y2="92" stroke="#3a3a42" stroke-width="0.8"/><line x1="81" y1="88" x2="79" y2="84" stroke="#3a3a42" stroke-width="0.8"/><line x1="84" y1="88" x2="82" y2="92" stroke="#3a3a42" stroke-width="0.8"/><line x1="84" y1="88" x2="82" y2="84" stroke="#3a3a42" stroke-width="0.8"/><line x1="87" y1="88" x2="85" y2="92" stroke="#3a3a42" stroke-width="0.8"/><line x1="87" y1="88" x2="85" y2="84" stroke="#3a3a42" stroke-width="0.8"/><circle cx="89" cy="88" r="3.2" fill="#e8714e"/><circle cx="84" cy="88" r="3.6" fill="#e8714e"/><circle cx="79" cy="88" r="3" fill="#e8714e"/><line x1="75" y1="76" x2="93" y2="76" stroke="#e8714e" stroke-width="1.6"/><path d="M93,76 L89,73.5 L89,78.5 Z" fill="#e8714e"/><line x1="125" y1="88" x2="123" y2="92" stroke="#3a3a42" stroke-width="0.8"/><line x1="125" y1="88" x2="123" y2="84" stroke="#3a3a42" stroke-width="0.8"/><line x1="128" y1="88" x2="126" y2="92" stroke="#3a3a42" stroke-width="0.8"/><line x1="128" y1="88" x2="126" y2="84" stroke="#3a3a42" stroke-width="0.8"/><line x1="131" y1="88" x2="129" y2="92" stroke="#3a3a42" stroke-width="0.8"/><line x1="131" y1="88" x2="129" y2="84" stroke="#3a3a42" stroke-width="0.8"/><circle cx="133" cy="88" r="3.2" fill="#e8714e"/><circle cx="128" cy="88" r="3.6" fill="#e8714e"/><circle cx="123" cy="88" r="3" fill="#e8714e"/><line x1="119" y1="76" x2="137" y2="76" stroke="#e8714e" stroke-width="1.6"/><path d="M137,76 L133,73.5 L133,78.5 Z" fill="#e8714e"/><line x1="169" y1="88" x2="167" y2="92" stroke="#3a3a42" stroke-width="0.8"/><line x1="169" y1="88" x2="167" y2="84" stroke="#3a3a42" stroke-width="0.8"/><line x1="172" y1="88" x2="170" y2="92" stroke="#3a3a42" stroke-width="0.8"/><line x1="172" y1="88" x2="170" y2="84" stroke="#3a3a42" stroke-width="0.8"/><line x1="175" y1="88" x2="173" y2="92" stroke="#3a3a42" stroke-width="0.8"/><line x1="175" y1="88" x2="173" y2="84" stroke="#3a3a42" stroke-width="0.8"/><circle cx="177" cy="88" r="3.2" fill="#e8714e"/><circle cx="172" cy="88" r="3.6" fill="#e8714e"/><circle cx="167" cy="88" r="3" fill="#e8714e"/><line x1="163" y1="76" x2="181" y2="76" stroke="#e8714e" stroke-width="1.6"/><path d="M181,76 L177,73.5 L177,78.5 Z" fill="#e8714e"/><line x1="213" y1="88" x2="211" y2="92" stroke="#3a3a42" stroke-width="0.8"/><line x1="213" y1="88" x2="211" y2="84" stroke="#3a3a42" stroke-width="0.8"/><line x1="216" y1="88" x2="214" y2="92" stroke="#3a3a42" stroke-width="0.8"/><line x1="216" y1="88" x2="214" y2="84" stroke="#3a3a42" stroke-width="0.8"/><line x1="219" y1="88" x2="217" y2="92" stroke="#3a3a42" stroke-width="0.8"/><line x1="219" y1="88" x2="217" y2="84" stroke="#3a3a42" stroke-width="0.8"/><circle cx="221" cy="88" r="3.2" fill="#e8714e"/><circle cx="216" cy="88" r="3.6" fill="#e8714e"/><circle cx="211" cy="88" r="3" fill="#e8714e"/><line x1="207" y1="76" x2="225" y2="76" stroke="#e8714e" stroke-width="1.6"/><path d="M225,76 L221,73.5 L221,78.5 Z" fill="#e8714e"/><line x1="257" y1="88" x2="259" y2="92" stroke="#3a3a42" stroke-width="0.8"/><line x1="257" y1="88" x2="259" y2="84" stroke="#3a3a42" stroke-width="0.8"/><line x1="260" y1="88" x2="262" y2="92" stroke="#3a3a42" stroke-width="0.8"/><line x1="260" y1="88" x2="262" y2="84" stroke="#3a3a42" stroke-width="0.8"/><line x1="263" y1="88" x2="265" y2="92" stroke="#3a3a42" stroke-width="0.8"/><line x1="263" y1="88" x2="265" y2="84" stroke="#3a3a42" stroke-width="0.8"/><circle cx="255" cy="88" r="3.2" fill="#4f86c6"/><circle cx="260" cy="88" r="3.6" fill="#4f86c6"/><circle cx="265" cy="88" r="3" fill="#4f86c6"/><line x1="269" y1="76" x2="251" y2="76" stroke="#4f86c6" stroke-width="1.6"/><path d="M251,76 L255,73.5 L255,78.5 Z" fill="#4f86c6"/><line x1="301" y1="88" x2="303" y2="92" stroke="#3a3a42" stroke-width="0.8"/><line x1="301" y1="88" x2="303" y2="84" stroke="#3a3a42" stroke-width="0.8"/><line x1="304" y1="88" x2="306" y2="92" stroke="#3a3a42" stroke-width="0.8"/><line x1="304" y1="88" x2="306" y2="84" stroke="#3a3a42" stroke-width="0.8"/><line x1="307" y1="88" x2="309" y2="92" stroke="#3a3a42" stroke-width="0.8"/><line x1="307" y1="88" x2="309" y2="84" stroke="#3a3a42" stroke-width="0.8"/><circle cx="299" cy="88" r="3.2" fill="#4f86c6"/><circle cx="304" cy="88" r="3.6" fill="#4f86c6"/><circle cx="309" cy="88" r="3" fill="#4f86c6"/><line x1="313" y1="76" x2="295" y2="76" stroke="#4f86c6" stroke-width="1.6"/><path d="M295,76 L299,73.5 L299,78.5 Z" fill="#4f86c6"/><line x1="345" y1="88" x2="347" y2="92" stroke="#3a3a42" stroke-width="0.8"/><line x1="345" y1="88" x2="347" y2="84" stroke="#3a3a42" stroke-width="0.8"/><line x1="348" y1="88" x2="350" y2="92" stroke="#3a3a42" stroke-width="0.8"/><line x1="348" y1="88" x2="350" y2="84" stroke="#3a3a42" stroke-width="0.8"/><line x1="351" y1="88" x2="353" y2="92" stroke="#3a3a42" stroke-width="0.8"/><line x1="351" y1="88" x2="353" y2="84" stroke="#3a3a42" stroke-width="0.8"/><circle cx="343" cy="88" r="3.2" fill="#4f86c6"/><circle cx="348" cy="88" r="3.6" fill="#4f86c6"/><circle cx="353" cy="88" r="3" fill="#4f86c6"/><line x1="357" y1="76" x2="339" y2="76" stroke="#4f86c6" stroke-width="1.6"/><path d="M339,76 L343,73.5 L343,78.5 Z" fill="#4f86c6"/><line x1="389" y1="88" x2="391" y2="92" stroke="#3a3a42" stroke-width="0.8"/><line x1="389" y1="88" x2="391" y2="84" stroke="#3a3a42" stroke-width="0.8"/><line x1="392" y1="88" x2="394" y2="92" stroke="#3a3a42" stroke-width="0.8"/><line x1="392" y1="88" x2="394" y2="84" stroke="#3a3a42" stroke-width="0.8"/><line x1="395" y1="88" x2="397" y2="92" stroke="#3a3a42" stroke-width="0.8"/><line x1="395" y1="88" x2="397" y2="84" stroke="#3a3a42" stroke-width="0.8"/><circle cx="387" cy="88" r="3.2" fill="#4f86c6"/><circle cx="392" cy="88" r="3.6" fill="#4f86c6"/><circle cx="397" cy="88" r="3" fill="#4f86c6"/><line x1="401" y1="76" x2="383" y2="76" stroke="#4f86c6" stroke-width="1.6"/><path d="M383,76 L387,73.5 L387,78.5 Z" fill="#4f86c6"/><line x1="433" y1="88" x2="435" y2="92" stroke="#3a3a42" stroke-width="0.8"/><line x1="433" y1="88" x2="435" y2="84" stroke="#3a3a42" stroke-width="0.8"/><line x1="436" y1="88" x2="438" y2="92" stroke="#3a3a42" stroke-width="0.8"/><line x1="436" y1="88" x2="438" y2="84" stroke="#3a3a42" stroke-width="0.8"/><line x1="439" y1="88" x2="441" y2="92" stroke="#3a3a42" stroke-width="0.8"/><line x1="439" y1="88" x2="441" y2="84" stroke="#3a3a42" stroke-width="0.8"/><circle cx="431" cy="88" r="3.2" fill="#4f86c6"/><circle cx="436" cy="88" r="3.6" fill="#4f86c6"/><circle cx="441" cy="88" r="3" fill="#4f86c6"/><line x1="445" y1="76" x2="427" y2="76" stroke="#4f86c6" stroke-width="1.6"/><path d="M427,76 L431,73.5 L431,78.5 Z" fill="#4f86c6"/><text x="240.0" y="140" text-anchor="middle" font-size="11" fill="#9a9aa6">5 ants face right · 5 face left — count the collisions before all drown</text></svg>