<svg xmlns="http://www.w3.org/2000/svg" viewBox="0 0 460 250" font-family="Inter, system-ui, sans-serif"><g fill="#b79b74" fill-opacity="0.10" stroke="none"><polygon points="341.2,297.6 286.3,284.4 230.0,280.0 173.7,284.4 118.8,297.6 103.3,250.1 165.9,235.0 230.0,230.0 294.1,235.0 356.7,250.1"/><polygon points="356.7,250.1 294.1,235.0 230.0,230.0 165.9,235.0 103.3,250.1 87.9,202.5 158.0,185.7 230.0,180.0 302.0,185.7 372.1,202.5"/><polygon points="372.1,202.5 302.0,185.7 230.0,180.0 158.0,185.7 87.9,202.5 72.4,155.0 150.2,136.3 230.0,130.0 309.8,136.3 387.6,155.0"/><polygon points="387.6,155.0 309.8,136.3 230.0,130.0 150.2,136.3 72.4,155.0 57.0,107.4 142.4,86.9 230.0,80.0 317.6,86.9 403.0,107.4"/></g><line x1="341.2" y1="297.6" x2="403.0" y2="107.4" stroke="#9a9aa6" stroke-width="1.4" opacity=".7"/><line x1="286.3" y1="284.4" x2="317.6" y2="86.9" stroke="#9a9aa6" stroke-width="1.4" opacity=".7"/><line x1="230.0" y1="280.0" x2="230.0" y2="80.0" stroke="#9a9aa6" stroke-width="1.4" opacity=".7"/><line x1="173.7" y1="284.4" x2="142.4" y2="86.9" stroke="#9a9aa6" stroke-width="1.4" opacity=".7"/><line x1="118.8" y1="297.6" x2="57.0" y2="107.4" stroke="#9a9aa6" stroke-width="1.4" opacity=".7"/><line x1="337.4" y1="192.7" x2="360.7" y2="95.5" stroke="#e8714e" stroke-width="1.6" stroke-dasharray="4 3"/><line x1="266.1" y1="181.4" x2="273.9" y2="81.7" stroke="#e8714e" stroke-width="1.6" stroke-dasharray="4 3"/><line x1="193.9" y1="181.4" x2="186.1" y2="81.7" stroke="#e8714e" stroke-width="1.6" stroke-dasharray="4 3"/><line x1="122.6" y1="192.7" x2="99.3" y2="95.5" stroke="#e8714e" stroke-width="1.6" stroke-dasharray="4 3"/><polyline fill="none" stroke="#9a9aa6" stroke-width="1.4" opacity=".7" points="341.2,297.6 286.3,284.4 230.0,280.0 173.7,284.4 118.8,297.6"/><polyline fill="none" stroke="#9a9aa6" stroke-width="1.4" opacity=".7" points="356.7,250.1 294.1,235.0 230.0,230.0 165.9,235.0 103.3,250.1"/><polyline fill="none" stroke="#9a9aa6" stroke-width="1.4" opacity=".7" points="372.1,202.5 302.0,185.7 230.0,180.0 158.0,185.7 87.9,202.5"/><polyline fill="none" stroke="#9a9aa6" stroke-width="1.4" opacity=".7" points="387.6,155.0 309.8,136.3 230.0,130.0 150.2,136.3 72.4,155.0"/><polyline fill="none" stroke="#9a9aa6" stroke-width="1.4" opacity=".7" points="403.0,107.4 317.6,86.9 230.0,80.0 142.4,86.9 57.0,107.4"/><text x="230.0" y="22" text-anchor="middle" font-size="12.5" fill="#4f86c6" font-weight="700">blocks grow wider the farther they are from the core</text><text x="230.0" y="240" text-anchor="middle" font-size="11.5" fill="#e8714e">…so when one would get too wide, split it in two (dashed)</text></svg>