<svg xmlns="http://www.w3.org/2000/svg" viewBox="0 0 200 150" font-family="Inter, system-ui, sans-serif"><ellipse cx="70" cy="92" rx="24" ry="20" fill="none" stroke="#9a9aa6" stroke-width="1.2" stroke-dasharray="4 4" opacity=".7"/><circle cx="68.9" cy="93.8" r="4" fill="#e8714e" stroke="#2a2a32" stroke-width="1" opacity=".95"/><circle cx="69.3" cy="91.2" r="4" fill="#e8714e" stroke="#2a2a32" stroke-width="1" opacity=".95"/><circle cx="63.9" cy="90.9" r="4" fill="#e8714e" stroke="#2a2a32" stroke-width="1" opacity=".95"/><circle cx="78.1" cy="94.5" r="4" fill="#e8714e" stroke="#2a2a32" stroke-width="1" opacity=".95"/><circle cx="77.2" cy="93.4" r="4" fill="#e8714e" stroke="#2a2a32" stroke-width="1" opacity=".95"/><circle cx="71.4" cy="92.5" r="4" fill="#e8714e" stroke="#2a2a32" stroke-width="1" opacity=".95"/><circle cx="57.5" cy="97.1" r="4" fill="#e8714e" stroke="#2a2a32" stroke-width="1" opacity=".95"/><circle cx="72.7" cy="94.1" r="4" fill="#e8714e" stroke="#2a2a32" stroke-width="1" opacity=".95"/><circle cx="58.8" cy="82.7" r="4" fill="#e8714e" stroke="#2a2a32" stroke-width="1" opacity=".95"/><circle cx="64.0" cy="89.5" r="4" fill="#e8714e" stroke="#2a2a32" stroke-width="1" opacity=".95"/><circle cx="70.8" cy="91.9" r="4" fill="#e8714e" stroke="#2a2a32" stroke-width="1" opacity=".95"/><circle cx="73.1" cy="88.9" r="4" fill="#e8714e" stroke="#2a2a32" stroke-width="1" opacity=".95"/><circle cx="71.2" cy="93.3" r="4" fill="#e8714e" stroke="#2a2a32" stroke-width="1" opacity=".95"/><circle cx="65.0" cy="102.4" r="4" fill="#e8714e" stroke="#2a2a32" stroke-width="1" opacity=".95"/><circle cx="74.2" cy="99.2" r="4" fill="#e8714e" stroke="#2a2a32" stroke-width="1" opacity=".95"/><circle cx="65.9" cy="88.1" r="4" fill="#e8714e" stroke="#2a2a32" stroke-width="1" opacity=".95"/><circle cx="152.7" cy="26.9" r="3.4" fill="#37a08f" opacity=".9"/><circle cx="158.3" cy="74.6" r="3.4" fill="#8a6bd0" opacity=".9"/><circle cx="143.4" cy="54.6" r="3.4" fill="#8a6bd0" opacity=".9"/><circle cx="182.0" cy="59.8" r="3.4" fill="#37a08f" opacity=".9"/><circle cx="172.0" cy="96.9" r="3.4" fill="#37a08f" opacity=".9"/><circle cx="116.4" cy="53.0" r="3.4" fill="#6b80a8" opacity=".9"/><circle cx="178.3" cy="100.2" r="3.4" fill="#6b80a8" opacity=".9"/><circle cx="157.5" cy="28.1" r="3.4" fill="#8a6bd0" opacity=".9"/><circle cx="142.6" cy="103.3" r="3.4" fill="#37a08f" opacity=".9"/><circle cx="182.8" cy="66.4" r="3.4" fill="#8a6bd0" opacity=".9"/><circle cx="116.1" cy="81.4" r="3.4" fill="#6b80a8" opacity=".9"/><circle cx="136.5" cy="58.5" r="3.4" fill="#6b80a8" opacity=".9"/><circle cx="155.2" cy="70.2" r="3.4" fill="#37a08f" opacity=".9"/><circle cx="183.7" cy="72.2" r="3.4" fill="#8a6bd0" opacity=".9"/><circle cx="115.1" cy="100.4" r="3.4" fill="#6b80a8" opacity=".9"/><circle cx="48.0" cy="49.8" r="3.4" fill="#37a08f" opacity=".9"/><circle cx="53.9" cy="28.5" r="3.4" fill="#37a08f" opacity=".9"/><circle cx="39.1" cy="40.1" r="3.4" fill="#37a08f" opacity=".9"/><circle cx="26.8" cy="33.9" r="3.4" fill="#37a08f" opacity=".9"/></svg>
