<svg xmlns="http://www.w3.org/2000/svg" viewBox="0 0 200 150" font-family="Inter, system-ui, sans-serif"><line x1="26" y1="20" x2="26" y2="128" stroke="#9a9aa6" stroke-width="1.4" opacity=".55"/><line x1="26" y1="128" x2="188" y2="128" stroke="#9a9aa6" stroke-width="1.4" opacity=".55"/><line x1="26" y1="82" x2="188" y2="82" stroke="#9a9aa6" stroke-width="1.2" stroke-dasharray="4 4" opacity=".7"/><text x="30" y="79" font-size="8" fill="#9a9aa6">0</text><path d="M26.0,120.0 C32.7,116.0 53.0,104.3 66.0,96.0 C79.0,87.7 90.7,78.3 104.0,70.0 C117.3,61.7 132.3,52.3 146.0,46.0 C159.7,39.7 179.3,34.3 186.0,32.0" fill="none" stroke="#e8714e" stroke-width="3" stroke-linecap="round"/><path d="M26.0,112.0 C32.7,110.0 53.0,104.3 66.0,100.0 C79.0,95.7 90.7,90.7 104.0,86.0 C117.3,81.3 132.3,76.7 146.0,72.0 C159.7,67.3 179.3,60.3 186.0,58.0" fill="none" stroke="#6b80a8" stroke-width="3" stroke-linecap="round"/><circle cx="128" cy="82" r="3.4" fill="#6b80a8"/><text x="150" y="20" font-size="15" fill="#d4634a">♦</text><text x="168" y="20" font-size="15" fill="#9a9aa6">♠</text></svg>
